<?xml version="1.0" encoding="UTF-8" standalone="no"?><svg width="269" height="139" viewBox="0 0 269 139" fill="none" xmlns="http://www.w3.org/2000/svg">
<path d="M3.34375 55V16.8182H17.0653V55H3.34375ZM10.2045 12.8409C8.34848 12.8409 6.75758 12.2277 5.43182 11.0014C4.10606 9.77509 3.44318 8.30019 3.44318 6.5767C3.44318 4.85322 4.10606 3.37831 5.43182 2.15199C6.75758 0.925662 8.34848 0.3125 10.2045 0.3125C12.0772 0.3125 13.6681 0.925662 14.9773 2.15199C16.303 3.37831 16.9659 4.85322 16.9659 6.5767C16.9659 8.30019 16.303 9.77509 14.9773 11.0014C13.6681 12.2277 12.0772 12.8409 10.2045 12.8409Z" fill="#000080"/>
<path d="M23.3566 55V16.8182H36.3822V24.0767H36.7799C37.5754 21.6903 38.9343 19.8011 40.8566 18.4091C42.779 17.017 45.0659 16.321 47.7174 16.321C50.4021 16.321 52.7139 17.0336 54.6528 18.4588C56.5917 19.8674 57.7601 21.7401 58.1578 24.0767H58.5555C59.2018 21.7401 60.5773 19.8674 62.6819 18.4588C64.7866 17.0336 67.2558 16.321 70.0896 16.321C73.752 16.321 76.7184 17.4976 78.9887 19.8509C81.2757 22.2041 82.4191 25.3362 82.4191 29.2472V55H68.6975V32.7273C68.6975 31.0535 68.275 29.7443 67.4298 28.7997C66.5846 27.8385 65.4494 27.358 64.0243 27.358C62.6156 27.358 61.497 27.8385 60.6684 28.7997C59.8564 29.7443 59.4504 31.0535 59.4504 32.7273V55H46.3254V32.7273C46.3254 31.0535 45.9028 29.7443 45.0576 28.7997C44.2125 27.8385 43.0773 27.358 41.6521 27.358C40.7075 27.358 39.8955 27.5734 39.216 28.0043C38.5366 28.4351 38.0063 29.0566 37.6251 29.8686C37.2605 30.6641 37.0782 31.6169 37.0782 32.7273V55H23.3566Z" fill="#000080"/>
<path d="M88.4867 55V16.8182H101.512V24.0767H101.91C102.705 21.6903 104.064 19.8011 105.987 18.4091C107.909 17.017 110.196 16.321 112.848 16.321C115.532 16.321 117.844 17.0336 119.783 18.4588C121.722 19.8674 122.89 21.7401 123.288 24.0767H123.686C124.332 21.7401 125.707 19.8674 127.812 18.4588C129.917 17.0336 132.386 16.321 135.22 16.321C138.882 16.321 141.848 17.4976 144.119 19.8509C146.406 22.2041 147.549 25.3362 147.549 29.2472V55H133.828V32.7273C133.828 31.0535 133.405 29.7443 132.56 28.7997C131.715 27.8385 130.58 27.358 129.154 27.358C127.746 27.358 126.627 27.8385 125.799 28.7997C124.986 29.7443 124.58 31.0535 124.58 32.7273V55H111.455V32.7273C111.455 31.0535 111.033 29.7443 110.188 28.7997C109.343 27.8385 108.207 27.358 106.782 27.358C105.838 27.358 105.026 27.5734 104.346 28.0043C103.667 28.4351 103.136 29.0566 102.755 29.8686C102.391 30.6641 102.208 31.6169 102.208 32.7273V55H88.4867Z" fill="#000080"/>
<path d="M172.012 55.696C167.869 55.696 164.322 54.8757 161.372 53.2351C158.423 51.5779 156.161 49.2744 154.586 46.3246C153.012 43.3582 152.225 39.9195 152.225 36.0085C152.225 32.0975 153.012 28.6671 154.586 25.7173C156.161 22.7509 158.423 20.4474 161.372 18.8068C164.322 17.1496 167.869 16.321 172.012 16.321C176.155 16.321 179.701 17.1496 182.651 18.8068C185.601 20.4474 187.863 22.7509 189.437 25.7173C191.011 28.6671 191.799 32.0975 191.799 36.0085C191.799 39.9195 191.011 43.3582 189.437 46.3246C187.863 49.2744 185.601 51.5779 182.651 53.2351C179.701 54.8757 176.155 55.696 172.012 55.696ZM172.111 45.554C173.271 45.554 174.274 45.1645 175.119 44.3857C175.964 43.6068 176.619 42.4964 177.083 41.0547C177.547 39.6129 177.779 37.8977 177.779 35.9091C177.779 33.9039 177.547 32.1887 177.083 30.7635C176.619 29.3217 175.964 28.2114 175.119 27.4325C174.274 26.6536 173.271 26.2642 172.111 26.2642C170.885 26.2642 169.832 26.6536 168.954 27.4325C168.076 28.2114 167.405 29.3217 166.941 30.7635C166.477 32.1887 166.245 33.9039 166.245 35.9091C166.245 37.8977 166.477 39.6129 166.941 41.0547C167.405 42.4964 168.076 43.6068 168.954 44.3857C169.832 45.1645 170.885 45.554 172.111 45.554Z" fill="#000080"/>
<path d="M0 138L11.5909 68.1818H54.6818L52.0909 83.4545H27.9545L26.0455 95.4545H50.1818L47.5909 110.727H23.4545L18.9545 138H0Z" fill="#000080"/>
<path d="M81.4643 68.1818L69.8734 138H51.0552L62.6461 68.1818H81.4643Z" fill="#000080"/>
<path d="M94.396 138.818C91.0778 138.818 88.2256 138.273 85.8392 137.182C83.4756 136.068 81.7483 134.386 80.6574 132.136C79.5892 129.864 79.3506 127 79.9415 123.545C80.4187 120.682 81.3165 118.239 82.6347 116.216C83.9528 114.193 85.5892 112.534 87.5437 111.239C89.4983 109.943 91.6915 108.955 94.1233 108.273C96.5778 107.568 99.1687 107.114 101.896 106.909C104.851 106.682 107.248 106.398 109.089 106.057C110.93 105.716 112.305 105.25 113.214 104.659C114.123 104.068 114.669 103.273 114.851 102.273V102.136C115.055 100.773 114.691 99.7273 113.76 99C112.851 98.2727 111.578 97.9091 109.941 97.9091C108.169 97.9091 106.635 98.2955 105.339 99.0682C104.066 99.8409 103.191 101.045 102.714 102.682H85.396C86.1233 99.5 87.6119 96.5682 89.8619 93.8864C92.1347 91.1818 95.146 89.0227 98.896 87.4091C102.669 85.7727 107.169 84.9545 112.396 84.9545C116.123 84.9545 119.396 85.3977 122.214 86.2841C125.032 87.1477 127.362 88.3636 129.203 89.9318C131.066 91.4773 132.373 93.2955 133.123 95.3864C133.896 97.4545 134.078 99.7045 133.669 102.136L127.669 138H110.078L111.305 130.636H110.896C109.532 132.591 107.998 134.17 106.294 135.375C104.612 136.58 102.771 137.455 100.771 138C98.7937 138.545 96.6687 138.818 94.396 138.818ZM102.578 126.955C103.987 126.955 105.373 126.659 106.737 126.068C108.101 125.477 109.271 124.625 110.248 123.511C111.226 122.398 111.851 121.045 112.123 119.455L112.805 115.091C112.305 115.295 111.748 115.489 111.135 115.67C110.544 115.83 109.919 115.989 109.26 116.148C108.623 116.307 107.941 116.455 107.214 116.591C106.51 116.727 105.782 116.864 105.032 117C103.532 117.227 102.271 117.602 101.248 118.125C100.226 118.625 99.4301 119.25 98.8619 120C98.2937 120.727 97.9415 121.545 97.8051 122.455C97.6006 123.886 97.9301 125 98.7937 125.795C99.6801 126.568 100.941 126.955 102.578 126.955Z" fill="#000080"/>
<path d="M190.731 102.682H173.822C173.913 101.591 173.72 100.659 173.242 99.8864C172.765 99.1136 172.095 98.5227 171.231 98.1136C170.39 97.7045 169.436 97.5 168.367 97.5C166.504 97.5 164.811 97.9205 163.288 98.7614C161.765 99.5795 160.913 100.659 160.731 102C160.617 102.523 160.788 103.011 161.242 103.466C161.697 103.92 162.89 104.341 164.822 104.727L175.186 106.636C180.367 107.591 184.14 109.33 186.504 111.852C188.89 114.352 189.754 117.659 189.095 121.773C188.481 125.341 186.913 128.409 184.39 130.977C181.867 133.545 178.663 135.523 174.777 136.909C170.913 138.273 166.64 138.955 161.958 138.955C153.708 138.955 147.527 137.307 143.413 134.011C139.322 130.716 137.458 126.409 137.822 121.091H156.095C156.14 122.795 156.708 124.08 157.799 124.943C158.913 125.784 160.39 126.227 162.231 126.273C164.231 126.341 165.981 125.943 167.481 125.08C168.981 124.193 169.822 123.091 170.004 121.773C170.072 121.023 169.742 120.455 169.015 120.068C168.311 119.682 166.958 119.295 164.958 118.909L155.958 117.273C150.777 116.341 147.004 114.477 144.64 111.682C142.277 108.864 141.458 105.273 142.186 100.909C142.777 97.4318 144.186 94.5114 146.413 92.1477C148.663 89.7841 151.617 88 155.277 86.7955C158.936 85.5682 163.163 84.9545 167.958 84.9545C175.799 84.9545 181.731 86.5341 185.754 89.6932C189.799 92.8295 191.458 97.1591 190.731 102.682Z" fill="#000080"/>
<path d="M217.441 108.545L212.532 138H193.714L205.305 68.1818H223.441L218.941 95.5909H219.487C221.191 92.25 223.578 89.6477 226.646 87.7841C229.714 85.8977 233.191 84.9545 237.078 84.9545C240.76 84.9545 243.828 85.7955 246.282 87.4773C248.737 89.1591 250.475 91.4773 251.498 94.4318C252.521 97.3864 252.714 100.773 252.078 104.591L246.487 138H227.669L232.578 108.545C232.987 105.955 232.657 103.92 231.589 102.443C230.544 100.966 228.828 100.227 226.441 100.227C224.896 100.227 223.487 100.568 222.214 101.25C220.964 101.909 219.919 102.864 219.078 104.114C218.26 105.341 217.714 106.818 217.441 108.545Z" fill="#000080"/>
<rect x="200.864" y="16.1951" width="23.2756" height="73.4252" transform="rotate(-44.0909 200.864 16.1951)" fill="#FFA07A"/>
</svg>
